
<svg width="100px" height="78px" viewBox="0 0 100 78" version="1.1" xmlns="http://www.w3.org/2000/svg" xmlns:xlink="http://www.w3.org/1999/xlink">
    <g stroke="none" stroke-width="1" fill="none" fill-rule="evenodd">
        <g id="Artboard" transform="translate(-636.000000, -271.000000)" fill-rule="nonzero">
            <g id="icons_empty" transform="translate(636.000000, 271.000000)">
                <g id="Group-3" transform="translate(0.000000, 11.289474)">
                    <path d="M2.04081633,0 L27.7503312,0 L27.7503312,-1.33226763e-15 C28.0368819,-3.66873533e-16 28.3102276,0.120485861 28.5035453,0.332003201 L34.2904382,6.66369656 L34.2904382,6.66369656 C34.4837559,6.8752139 34.7571016,6.99569976 35.0436523,6.99569976 L80.6122449,6.99569976 L80.6122449,6.99569976 C81.7393566,6.99569976 82.6530612,7.90940436 82.6530612,9.03651609 L82.6530612,64.66971 L82.6530612,64.66971 C82.6530612,65.7968217 81.7393566,66.7105263 80.6122449,66.7105263 L7.14285714,66.7105263 L7.14285714,66.7105263 C3.19796607,66.7105263 3.14764508e-15,63.5125602 2.66453526e-15,59.5676692 L0,2.04081633 L0,2.04081633 C-1.38031378e-16,0.913704592 0.913704592,-1.56930977e-15 2.04081633,-1.77635684e-15 Z" id="Rectangle-9" fill="#CFD7E6"></path>
                    <path d="M4.08163265,4.10526316 L28.4135981,4.10526316 L28.4135981,4.10526316 C28.6913398,4.10526316 28.9570811,4.21847809 29.1494882,4.41877765 L34.6251905,10.1190901 L34.6251905,10.1190901 C34.8175976,10.3193897 35.0833389,10.4326046 35.3610806,10.4326046 L78.5714286,10.4326046 L78.5714286,10.4326046 C79.6985403,10.4326046 80.6122449,11.3463092 80.6122449,12.473421 L80.6122449,62.401553 L80.6122449,62.401553 C80.6122449,63.5286648 79.6985403,64.4423694 78.5714286,64.4423694 L9.18367347,64.4423694 L9.18367347,64.4423694 C5.2387824,64.4423694 2.04081633,61.2444033 2.04081633,57.2995122 L2.04081633,6.14607948 L2.04081633,6.14607948 C2.04081633,5.01896775 2.95452092,4.10526316 4.08163265,4.10526316 Z" id="Rectangle-9-Copy" fill="#EEF1F6"></path>
                </g>
                <g id="Group-2" transform="translate(1.020408, 37.973684)">
                    <path d="M20.8295161,7.51562555e-14 L93.0781838,7.51562555e-14 L93.0781838,7.63833441e-14 C94.2052956,6.81676865e-14 95.1190002,0.913704592 95.1190002,2.04081633 C95.1190002,2.25875568 95.0840909,2.4752882 95.0155989,2.6821853 L83.1163394,38.6268684 L83.1163394,38.6268684 C82.8397878,39.4622615 82.058903,40.0263158 81.1789243,40.0263158 L7.05396204,40.0263158 L2.71360517,38.0684778 C0.596932145,34.995108 0.0450393778,33.3472348 1.05792687,33.1248584 C1.81007049,32.9597275 1.70189548,36.3620702 5.40123579,35.8093858 C6.90003372,34.6477448 8.16168364,32.5916856 9.18618555,29.641208 L18.8994945,1.37753053 L18.8994945,1.37753053 C19.182731,0.553372198 19.9580462,7.67592045e-14 20.8295161,7.50510765e-14 Z" id="Rectangle" fill="#CFD7E6"></path>
                    <path d="M23.6988409,3.07894737 L90.3887611,3.07894737 L90.3887611,3.07894737 C90.952317,3.07894737 91.4091693,3.53579966 91.4091693,4.09935553 C91.4091693,4.21403435 91.3898379,4.32789275 91.3519877,4.43614521 L80.2582224,36.1645826 L80.2582224,36.1645826 C79.9719113,36.9834392 79.1992368,37.5318196 78.3317692,37.5318196 L11.6418489,37.5318196 L11.6418489,37.5318196 C11.0782931,37.5318196 10.6214408,37.0749673 10.6214408,36.5114114 C10.6214408,36.3967326 10.6407721,36.2828742 10.6786223,36.1746217 L21.7723876,4.44618434 L21.7723876,4.44618434 C22.0586987,3.62732775 22.8313732,3.07894737 23.6988409,3.07894737 Z" id="Rectangle-Copy" fill="#FFFFFF"></path>
                    <path d="M11.2506412,34.342377 L80.8267311,34.342377 L80.2410458,36.1272824 L80.2410458,36.1272824 C79.9660735,36.9652741 79.1839054,37.5318196 78.3019532,37.5318196 L11.6128488,37.5318196 L11.6128488,37.5318196 C11.049293,37.5318196 10.5924407,37.0749673 10.5924407,36.5114114 C10.5924407,36.4033406 10.6096086,36.2959559 10.6433025,36.1932718 L11.2506412,34.342377 Z" id="Rectangle-Copy-2" fill="#EEF1F6"></path>
                </g>
                <rect id="Rectangle-11" fill="#CFD7E6" x="79.5918367" y="0" width="2.04081633" height="10.2631579" rx="1.02040816"></rect>
                <rect id="Rectangle-11-Copy" fill="#CFD7E6" transform="translate(94.897959, 17.447368) rotate(90.000000) translate(-94.897959, -17.447368) " x="93.877551" y="12.3157895" width="2.04081633" height="10.2631579" rx="1.02040816"></rect>
                <rect id="Rectangle-11-Copy-2" fill="#CFD7E6" transform="translate(91.063919, 7.433236) rotate(45.000000) translate(-91.063919, -7.433236) " x="90.0435109" y="2.30165755" width="2.04081633" height="10.2631579" rx="1.02040816"></rect>
            </g>
        </g>
    </g>
</svg>
